GIL03_free4_RRA_states
nRows=4
nColumns=47

# SIMM Motion File Header:
name GIL03_free4_RRA_states
datacolumns 47
datarows 4
otherdata 1
range 0.35233000000000020000 0.35383000000000020000
endheader
time	pelvis_tx	pelvis_ty	pelvis_tz	pelvis_tilt	pelvis_list	pelvis_rotation	hip_flexion_r	hip_adduction_r	hip_rotation_r	knee_angle_r	ankle_angle_r	subtalar_angle_r	mtp_angle_r	hip_flexion_l	hip_adduction_l	hip_rotation_l	knee_angle_l	ankle_angle_l	subtalar_angle_l	mtp_angle_l	lumbar_extension	lumbar_bending	lumbar_rotation	pelvis_tx_u	pelvis_ty_u	pelvis_tz_u	pelvis_tilt_u	pelvis_list_u	pelvis_rotation_u	hip_flexion_r_u	hip_adduction_r_u	hip_rotation_r_u	knee_angle_r_u	ankle_angle_r_u	subtalar_angle_r_u	mtp_angle_r_u	hip_flexion_l_u	hip_adduction_l_u	hip_rotation_l_u	knee_angle_l_u	ankle_angle_l_u	subtalar_angle_l_u	mtp_angle_l_u	lumbar_extension_u	lumbar_bending_u	lumbar_rotation_u
      0.35233000000000020000	      0.26741479945818464000	      0.89199357409472435000	     -0.22444053702084474000	      3.23968814534242220000	     -3.80162541318425130000	      0.87805535238293431000	     -2.07034652915364290000	      6.94073788612561330000	      4.80478816085770260000	    -13.74906597739052200000	     13.51013814784862400000	      0.00000000000000038332	      0.00000000000000307910	     23.69811381672832700000	     -8.54977952971417740000	      7.21897741454329280000	    -44.16763339948169400000	      9.42595229572894410000	     -0.00000000000000017925	     -0.00000000000000661831	    -17.60551097444787100000	      4.76726642782950090000	      8.36684705474392490000	      1.13425013323409570000	     -0.11633963469508019000	     -0.03954795185951050900	    -18.06594528677213400000	     -6.03922441008573060000	      9.32366687315641230000	    -90.36805002215865600000	      8.23743297513552090000	     10.31813860787772400000	     47.44453331393685100000	     54.96615268202496200000	     -0.00000000000007081039	      0.00000000000035093200	     82.39662087662412700000	     29.07293065823266800000	     65.24717394349939100000	    295.75994478398428000000	    -64.20317964583939800000	     -0.00000000000000219833	     -0.00000000000002218029	     16.67161088823878900000	     12.31580689881833900000	     11.33889260063531300000
      0.35283000000000020000	      0.26798217257451146000	      0.89193519311655012000	     -0.22446038322981934000	      3.23065480342401030000	     -3.80465864776369810000	      0.88271931857463359000	     -2.11555960655126100000	      6.94485627430437180000	      4.80983295446962170000	    -13.72532343031515700000	     13.53763863391028400000	      0.00000000000000034655	      0.00000000000000325968	     23.73916335530754300000	     -8.53526139918680830000	      7.25158838055618560000	    -44.01952142478142300000	      9.39354968295107360000	     -0.00000000000000018043	     -0.00000000000000662961	    -17.59713301258044300000	      4.77343561316726280000	      8.37259962193850880000	      1.13524329777949370000	     -0.11718345876948157000	     -0.03983538456704706400	    -18.06678049198458100000	     -6.09332273388025490000	      9.33118846382202170000	    -90.48508930856297600000	      8.23580199251499320000	      9.86108653413095130000	     47.52574586231678900000	     55.03533738159475800000	     -0.00000000000007660344	      0.00000000000037630644	     81.80062528037208800000	     28.99921573913387700000	     65.19517857483776900000	    296.68626054860721000000	    -65.40614108255391600000	     -0.00000000000000277122	     -0.00000000000002136068	     16.83962771798333700000	     12.36006393860962600000	     11.67275964096225800000
      0.35333000000000020000	      0.26855004372530406000	      0.89187639144059383000	     -0.22448037090802642000	      3.22162200279374970000	     -3.80771833379547030000	      0.88738553400172160000	     -2.16083245168212290000	      6.94897336151578400000	      4.81464930965205000000	    -13.70154012318575100000	     13.56517317062191500000	      0.00000000000000030473	      0.00000000000000344859	     23.77991354284464600000	     -8.52078067675392600000	      7.28417108103317370000	    -43.87094884175677800000	      9.36054729963384880000	     -0.00000000000000018163	     -0.00000000000000664022	    -17.58867195023126600000	      4.77962560990531140000	      8.37852119181424900000	      1.13624227710822920000	     -0.11802245394488725000	     -0.04011383262433423200	    -18.06378803944998500000	     -6.14500826052867220000	      9.33266895978439060000	    -90.60712772831487900000	      8.23221137630269690000	      9.40440876067067850000	     47.60760824881290900000	     55.10263630300647700000	     -0.00000000000009167166	      0.00000000000036397418	     81.19923543448476300000	     28.92332424542929900000	     65.13411073513798000000	    297.60235821519058000000	    -66.60223103212196300000	     -0.00000000000000244784	     -0.00000000000002139468	     17.00402332799231100000	     12.39902975400162800000	     12.01489086784762100000
      0.35383000000000020000	      0.26911841581719337000	      0.89181717146255435000	     -0.22450049556971083000	      3.21259165789682210000	     -3.81080324992674630000	      0.89205098434980745000	     -2.20616756883619040000	      6.95308815662128680000	      4.81923746974416290000	    -13.67771571932945600000	     13.59274094155689400000	      0.00000000000000025827	      0.00000000000000363565	     23.82036169702082900000	     -8.50633843195928560000	      7.31672098759289740000	    -43.72192079793953200000	      9.32694865018484440000	     -0.00000000000000018282	     -0.00000000000000665049	    -17.58012959877667900000	      4.78583375783035780000	      8.38461588286299350000	      1.13724704860422010000	     -0.11885664831321534000	     -0.04038332385336423200	    -18.05694051552615100000	     -6.19425713864365070000	      9.32813022576861780000	    -90.73417328272881800000	      8.22664637363363840000	      8.94837096539710150000	     47.69008678047335800000	     55.16796521924676000000	     -0.00000000000009424262	      0.00000000000037956806	     80.59248398061002700000	     28.84529073437856500000	     65.06402076312802800000	    298.50806649921833000000	    -67.79112973287713800000	     -0.00000000000000320218	     -0.00000000000001974588	     17.16476157000849800000	     12.43268495520448400000	     12.36524213323752800000
